# xmcd CD database file
#
# Track frame offsets:
#	150
#	60629
#	77532
#	111618
#	153090
#	216879
#	252213
#	283265
#	302930
#
# Disc length: 4348 seconds
#
# Revision: 0
# Processed by: cddbd v1.5.1PL0 Copyright (c) Steve Scherf et al.
# Submitted via: CDex 1.51
#
DISCID=7e10fa09
DTITLE=Carla Bley and Steve Swallow - Live in Zurich
DYEAR=1900
DGENRE=Jazz
TTITLE0=unknown
TTITLE1=Major (Bley)
TTITLE2=A Dog's Life (Swallow)
TTITLE3=Satie for Two
TTITLE4=Blues in Twelve Bars - Blues in Twelve Other Bars (Bley)
TTITLE5=Tropical Depression (Bley)
TTITLE6=King Cornet (Bley)
TTITLE7=Romantic Notion No. 3 - Walking Batterie Woman - Real Life Hits
TTITLE8=Playing With Water (Swallow)
EXTD=
EXTT0=
EXTT1=
EXTT2=
EXTT3=
EXTT4=
EXTT5=
EXTT6=
EXTT7=
EXTT8=
PLAYORDER=
